<?xml version="1.0" standalone="no"?>
<!DOCTYPE svg PUBLIC "-//W3C//DTD SVG 20010904//EN"
 "http://www.w3.org/TR/2001/REC-SVG-20010904/DTD/svg10.dtd">
<svg version="1.0" xmlns="http://www.w3.org/2000/svg"
 width="325.000000pt" height="325.000000pt" viewBox="0 0 325.000000 325.000000"
 preserveAspectRatio="xMidYMid meet">
<metadata>
Created by potrace 1.11, written by Peter Selinger 2001-2013
</metadata>
<g transform="translate(0.000000,325.000000) scale(0.100000,-0.100000)"
fill="#000000" stroke="none">
<path d="M1575 2471 c-3 -5 -2 -12 3 -15 5 -3 9 1 9 9 0 17 -3 19 -12 6z"/>
<path d="M1635 2451 c-3 -6 -23 -9 -45 -8 -22 2 -40 -1 -40 -6 0 -5 -6 -4 -13
2 -8 6 -17 8 -21 4 -12 -13 -80 -13 -88 0 -6 9 -8 8 -8 -3 0 -10 -11 -15 -35
-15 -19 0 -35 3 -35 7 0 4 -5 8 -11 8 -5 0 -8 -4 -5 -9 3 -5 -16 -11 -43 -13
-27 -1 -47 0 -44 5 2 4 -1 7 -6 7 -6 0 -11 -4 -11 -10 0 -5 -4 -10 -10 -10 -5
0 -7 8 -4 18 5 14 4 14 -4 3 -12 -17 -42 -24 -42 -10 0 5 -5 9 -11 9 -5 0 -7
-4 -4 -10 3 -5 -2 -10 -12 -11 -10 0 -28 -2 -40 -3 -12 -1 -20 1 -17 6 3 4 0
8 -5 8 -6 0 -11 -4 -11 -9 0 -6 -21 -11 -47 -13 l-48 -3 1 -42 c1 -24 -2 -41
-6 -38 -5 3 -12 1 -15 -5 -4 -6 -3 -10 2 -9 20 3 25 -2 13 -16 -7 -9 -10 -18
-6 -22 3 -3 6 -1 6 6 0 7 5 9 10 6 7 -4 7 -12 0 -25 -6 -11 -6 -21 -1 -24 10
-7 9 -31 -2 -42 -4 -4 -7 -12 -7 -18 0 -6 5 -4 11 4 7 11 9 7 5 -17 -2 -19 1
-34 7 -37 8 -3 8 -5 -1 -5 -7 -1 -10 -6 -7 -11 7 -11 14 -74 19 -167 2 -42 0
-51 -10 -42 -8 7 -14 7 -19 -1 -4 -6 -1 -9 6 -8 7 2 13 -3 14 -10 0 -7 7 -17
15 -22 13 -9 13 -10 0 -11 -8 -1 -19 -1 -23 0 -5 1 -5 -3 -2 -9 4 -6 13 -9 19
-7 9 4 12 -8 11 -41 -1 -26 2 -55 7 -64 6 -12 5 -18 -2 -18 -6 0 -9 -4 -6 -8
3 -5 8 -23 11 -39 4 -28 3 -31 -18 -27 -21 4 -21 4 2 -6 18 -8 22 -16 19 -35
-3 -13 0 -26 6 -29 7 -3 6 -5 -2 -5 -7 -1 -10 -6 -7 -11 13 -21 14 -70 2 -70
-7 0 -6 -4 3 -10 8 -5 11 -10 6 -10 -5 0 -2 -8 5 -17 10 -11 10 -14 2 -9 -7 4
-13 3 -13 -3 0 -5 4 -12 8 -15 11 -6 9 -87 -2 -105 -6 -10 -5 -12 2 -7 12 7
14 -7 15 -106 1 -27 5 -48 11 -48 6 0 4 -5 -4 -10 -11 -7 -11 -10 -2 -10 7 0
10 -5 6 -12 -4 -7 -3 -8 5 -4 19 12 89 18 71 6 -8 -5 -10 -10 -4 -10 5 0 15 5
22 12 9 9 12 9 12 0 0 -7 4 -12 10 -12 5 0 6 8 3 18 -6 15 -5 15 10 3 9 -7 17
-10 17 -5 0 5 22 10 49 11 34 1 49 -2 47 -10 -1 -7 -1 -9 1 -4 3 4 9 5 14 2 5
-4 7 0 4 7 -4 10 7 13 42 12 27 -1 50 -2 53 -3 19 -9 38 -7 34 2 -4 13 120 16
132 4 3 -3 17 1 30 10 19 12 27 13 39 3 12 -10 15 -10 15 0 0 9 4 9 17 -1 13
-11 15 -11 9 -1 -5 9 -3 13 5 11 41 -5 77 3 83 18 4 9 1 20 -6 24 -9 6 -9 11
1 23 9 11 10 16 2 16 -6 0 -11 5 -11 11 0 5 6 7 13 3 10 -6 10 -4 0 7 -7 7
-13 21 -13 32 0 10 -4 16 -9 13 -5 -3 -32 -8 -60 -10 -46 -4 -52 -2 -47 12 6
16 5 16 -7 0 -7 -9 -26 -17 -42 -18 -44 -3 -49 -1 -36 13 8 10 7 14 -4 14 -7
0 -14 -3 -13 -6 0 -3 0 -13 -1 -21 -1 -13 -2 -13 -11 0 -6 9 -10 10 -10 3 0
-14 -39 -14 -59 1 -11 8 -13 8 -8 0 10 -17 -8 -21 -100 -20 -44 1 -79 -2 -76
-6 2 -5 0 -8 -5 -8 -5 0 -14 10 -21 23 -9 19 -10 19 -6 2 4 -16 0 -21 -20 -23
-17 -1 -25 3 -25 14 0 13 3 14 13 5 10 -8 14 -7 14 4 0 7 -3 14 -6 13 -33 -3
-48 41 -22 67 15 15 15 16 -1 10 -13 -5 -16 -2 -13 14 2 12 7 26 11 33 4 7 3
8 -4 4 -7 -4 -12 -2 -12 3 0 6 6 11 13 11 9 0 9 2 0 8 -19 12 -21 130 -3 143
13 9 12 10 -2 5 -10 -3 -20 -1 -23 4 -3 4 0 10 6 12 9 3 9 9 0 26 -10 19 -8
23 19 37 31 16 41 29 16 19 -14 -5 -17 18 -4 31 12 12 43 12 57 1 11 -8 13 -8
7 2 -4 7 -1 12 9 12 10 0 14 -5 9 -12 -6 -10 -4 -10 7 0 7 6 28 12 47 12 27 0
33 -3 28 -16 -3 -8 -2 -12 4 -9 6 3 10 12 10 19 0 9 16 13 55 12 31 -1 55 3
55 9 0 6 4 4 9 -4 7 -11 9 -11 14 0 4 10 6 10 6 2 1 -7 6 -13 12 -13 5 0 8 4
5 8 -3 5 1 9 9 9 8 0 11 -5 8 -11 -3 -6 0 -5 8 2 15 14 33 16 24 3 -3 -5 -1
-13 5 -16 6 -4 9 -1 8 6 -2 7 11 15 30 19 20 5 32 4 32 -3 0 -5 8 -3 19 7 18
16 18 38 2 128 0 4 -46 6 -100 5 -55 -1 -98 -4 -96 -7 2 -3 -13 -5 -33 -5 -22
0 -37 5 -37 12 0 6 -3 15 -7 19 -4 3 -5 -3 -3 -16 3 -18 1 -21 -15 -17 -11 3
-20 0 -20 -6 0 -7 -5 -5 -10 3 -8 12 -10 12 -10 1 0 -11 -3 -11 -15 -1 -9 7
-15 8 -15 2 0 -6 -11 -9 -25 -7 -14 1 -28 -2 -32 -8 -4 -6 -12 -3 -20 8 -7 11
-13 13 -13 6 0 -7 -4 -10 -9 -6 -5 3 -12 1 -16 -5 -10 -16 -25 -12 -25 7 0 15
-2 14 -15 -3 -14 -18 -14 -18 -10 4 2 12 0 22 -4 22 -11 0 -8 44 4 52 6 5 5 8
-2 8 -7 0 -13 5 -13 11 0 5 6 7 13 3 9 -6 9 -5 0 7 -7 8 -12 36 -11 61 0 25
-3 51 -7 58 -4 6 1 20 11 31 16 18 16 19 1 13 -12 -4 -17 -1 -17 10 0 9 6 16
13 16 6 0 3 6 -7 12 -18 10 -18 11 5 29 l24 18 -25 -5 c-20 -5 -22 -3 -10 5 8
6 10 11 4 11 -6 0 -11 6 -11 14 0 12 4 12 24 -1 13 -9 26 -13 30 -9 3 3 1 6
-7 6 -10 0 -10 3 0 15 7 8 18 15 24 15 6 0 4 -5 -4 -10 -8 -5 -10 -10 -4 -10
5 0 15 5 22 12 19 19 27 0 9 -20 -10 -10 -17 -23 -17 -28 0 -5 12 8 27 29 23
32 28 36 33 21 6 -16 8 -16 16 -3 10 17 45 20 56 4 5 -6 8 -5 8 3 0 7 4 11 8
8 4 -2 14 -1 22 4 9 5 19 5 27 -2 10 -8 13 -7 13 3 0 11 2 11 10 -1 9 -13 10
-13 10 0 0 13 2 13 9 0 6 -8 7 -18 4 -24 -3 -5 -1 -6 5 -2 6 4 8 14 5 24 -6
15 -5 16 12 2 10 -8 16 -10 12 -4 -4 7 5 11 24 12 22 0 29 -3 25 -13 -3 -8 -1
-17 5 -20 5 -4 9 -3 8 2 -6 33 2 38 64 37 80 0 84 1 82 36 -1 16 2 27 6 24 4
-2 11 0 14 6 4 6 1 9 -6 8 -8 -2 -15 11 -19 32 -3 19 -9 35 -15 35 -5 0 -15 4
-22 8 -6 4 -14 3 -18 -2z m-465 -181 c0 -5 -4 -10 -10 -10 -5 0 -10 5 -10 10
0 6 5 10 10 10 6 0 10 -4 10 -10z m25 -569 c2 -13 -1 -21 -11 -21 -9 0 -12 8
-10 23 3 12 5 24 5 26 2 10 12 -8 16 -28z"/>
<path d="M1016 2437 c3 -10 9 -15 12 -12 3 3 0 11 -7 18 -10 9 -11 8 -5 -6z"/>
<path d="M1380 2270 c-9 -6 -10 -10 -3 -10 6 0 15 5 18 10 8 12 4 12 -15 0z"/>
<path d="M1565 2270 c-3 -6 1 -7 9 -4 18 7 21 14 7 14 -6 0 -13 -4 -16 -10z"/>
<path d="M1487 2249 c7 -7 15 -10 18 -7 3 3 -2 9 -12 12 -14 6 -15 5 -6 -5z"/>
<path d="M950 2206 c7 -7 13 -7 20 0 6 6 3 10 -10 10 -13 0 -16 -4 -10 -10z"/>
<path d="M1150 2195 c0 -7 30 -13 34 -7 3 4 -4 9 -15 9 -10 1 -19 0 -19 -2z"/>
<path d="M1653 2153 c4 -6 0 -16 -8 -23 -12 -10 -15 -10 -15 1 0 9 -3 10 -8 4
-4 -5 -13 -10 -19 -11 -7 -1 -17 -2 -21 -2 -4 -1 -7 -18 -7 -37 1 -19 -3 -35
-9 -35 -8 0 -8 -3 0 -8 6 -4 10 -17 9 -29 -2 -24 -5 -23 88 -27 15 0 32 -8 37
-16 8 -13 10 -12 10 4 0 15 3 16 14 7 11 -9 15 -9 19 1 4 9 6 10 6 1 1 -7 8
-10 18 -6 11 4 14 3 9 -6 -6 -9 -3 -9 13 1 18 11 23 11 30 -1 7 -11 9 -11 14
0 4 12 7 11 16 -1 10 -13 11 -13 11 0 0 13 2 13 9 0 6 -8 7 -18 4 -24 -3 -5
-1 -6 5 -2 6 4 9 13 6 20 -4 10 3 13 28 9 18 -2 41 -4 51 -4 9 0 15 -3 13 -7
-3 -4 4 -8 14 -8 10 0 16 4 14 8 -3 4 2 8 11 8 11 0 15 -5 12 -14 -7 -18 33
-13 45 6 6 10 8 9 8 -2 0 -9 -6 -22 -12 -30 -11 -12 -10 -12 5 -1 9 7 17 19
17 26 0 8 9 10 25 7 14 -2 25 -8 25 -13 0 -4 -9 -6 -20 -4 -12 2 -18 0 -15 -6
4 -5 11 -7 16 -4 5 4 9 1 9 -5 0 -6 5 -8 12 -4 6 4 8 3 4 -4 -3 -6 -16 -9 -28
-7 -11 3 -17 1 -14 -3 4 -4 12 -7 18 -7 6 0 12 -15 12 -33 1 -24 -3 -31 -13
-27 -11 4 -11 2 -3 -8 12 -14 12 -237 0 -237 -9 0 -5 -62 5 -77 6 -9 3 -11 -8
-7 -10 4 -14 2 -10 -8 4 -9 0 -15 -9 -15 -8 0 -13 4 -10 9 3 4 0 8 -5 8 -6 0
-11 -6 -11 -12 0 -9 -4 -8 -10 2 -7 11 -10 11 -10 2 0 -7 -4 -11 -9 -8 -4 3
-31 6 -59 7 -31 1 -49 6 -45 12 4 6 1 7 -8 2 -21 -13 -53 -14 -62 -1 -6 8 -10
7 -14 -2 -2 -6 -9 -9 -14 -6 -5 3 -63 8 -128 10 -102 3 -120 2 -125 -12 -3 -9
-3 -21 1 -26 3 -6 2 -8 -4 -5 -5 4 -9 -13 -8 -41 2 -45 3 -47 33 -50 33 -3 39
-11 22 -28 -7 -7 -6 -11 4 -11 8 0 15 3 14 6 -2 23 5 31 28 31 17 0 23 -4 18
-12 -6 -10 -4 -10 7 -2 11 9 66 11 98 5 2 -1 -2 -8 -9 -16 -19 -23 -3 -18 21
8 l22 22 -6 -23 c-3 -12 -1 -20 4 -16 5 3 9 13 9 22 0 15 2 15 10 2 7 -11 12
-12 21 -3 14 14 41 5 32 -11 -3 -6 -1 -6 8 2 16 14 33 16 24 2 -3 -5 -1 -10 4
-10 6 0 11 4 11 9 0 4 13 8 30 7 16 -1 30 -6 30 -13 0 -6 4 -14 9 -17 5 -4 7
4 5 16 -2 13 -2 17 2 10 3 -6 10 -10 15 -6 5 3 9 0 9 -6 0 -6 5 -8 10 -5 6 4
7 11 4 17 -4 6 0 6 13 -1 11 -6 23 -8 26 -5 3 4 5 -3 4 -14 0 -11 -5 -18 -10
-15 -5 3 -7 0 -5 -8 3 -8 11 -13 18 -11 11 3 11 0 1 -12 -7 -9 -11 -22 -8 -30
3 -8 3 -17 -1 -20 -10 -11 -9 -46 2 -46 6 0 5 -4 -2 -9 -8 -4 -14 -12 -14 -16
0 -4 6 -12 14 -16 9 -6 9 -9 1 -9 -7 0 -17 -10 -23 -22 -10 -22 -10 -22 4 -4
14 17 15 16 14 -12 -1 -23 -5 -29 -17 -25 -12 3 -11 1 2 -7 18 -11 18 -12 0
-27 -10 -8 -13 -12 -6 -9 6 4 14 2 18 -4 3 -6 -4 -11 -17 -11 -17 -1 -18 -3
-5 -6 18 -5 24 -33 7 -33 -5 0 -10 -5 -10 -11 0 -6 7 -9 15 -5 8 3 15 1 15 -3
0 -15 -27 -20 -40 -8 -10 10 -12 8 -6 -7 5 -15 4 -17 -7 -8 -8 7 -17 9 -20 5
-4 -3 -13 0 -21 6 -10 8 -16 9 -21 1 -3 -6 -11 -8 -16 -4 -5 3 -6 10 -3 16 4
7 2 8 -5 4 -6 -4 -9 -11 -7 -15 3 -4 -1 -8 -9 -8 -8 0 -15 4 -15 8 0 4 -14 4
-31 -1 -27 -8 -30 -7 -24 8 5 14 4 15 -6 5 -7 -7 -20 -13 -28 -13 -14 0 -14 1
-1 10 22 14 3 12 -20 -2 -17 -11 -22 -10 -30 2 -9 13 -10 13 -10 0 0 -13 -1
-13 -10 0 -5 8 -10 10 -10 4 0 -6 -7 -11 -15 -11 -8 0 -15 4 -15 9 0 4 -5 8
-11 8 -5 0 -8 -3 -6 -7 6 -9 -71 -9 -79 0 -3 3 -21 3 -40 1 -28 -3 -33 -1 -28
13 5 17 5 17 -6 1 -6 -9 -17 -15 -24 -12 -8 3 -17 1 -21 -5 -3 -6 -1 -11 6
-11 8 0 9 -4 0 -13 -8 -10 -7 -17 1 -25 9 -9 9 -12 -1 -12 -7 0 -9 -4 -6 -10
3 -5 0 -10 -7 -10 -10 0 -10 -2 1 -9 9 -6 12 -19 8 -37 -4 -16 -4 -23 -1 -16
3 6 19 12 35 12 22 0 28 -4 23 -12 -6 -10 -4 -10 7 -2 21 16 95 11 91 -6 -2
-10 3 -8 17 4 19 18 26 15 22 -8 -1 -5 4 -4 11 2 9 7 46 9 108 5 52 -3 113 -5
135 -5 22 0 43 -5 47 -12 5 -7 8 -6 8 3 0 11 4 9 15 -5 13 -16 14 -17 9 -1 -7
19 14 21 29 2 6 -6 10 -5 14 3 4 10 8 10 19 1 8 -6 11 -16 7 -22 -3 -6 -1 -7
6 -3 6 4 9 12 5 17 -3 5 16 8 48 7 57 -3 83 6 71 25 -13 21 -12 39 2 33 8 -3
17 -1 20 5 4 5 1 8 -7 7 -8 -2 -12 5 -11 20 2 13 -1 21 -7 17 -13 -8 0 28 14
37 8 6 8 8 0 8 -7 0 -11 19 -10 50 0 27 3 50 6 50 3 0 3 24 1 52 l-3 53 23
-20 24 -20 -20 23 c-21 26 -29 117 -12 140 6 8 5 12 -4 12 -9 0 -10 3 -4 8 6
4 10 14 10 22 0 8 7 22 15 30 9 8 11 12 6 8 -24 -19 -30 11 -10 44 4 6 3 8 -3
5 -5 -3 -8 11 -7 36 2 23 3 55 3 70 1 16 5 26 9 23 5 -3 9 1 9 9 0 8 -4 12 -9
9 -4 -3 -8 0 -8 5 0 6 6 11 13 11 9 0 8 3 -2 9 -9 6 -10 11 -2 15 6 4 16 4 23
0 7 -4 8 -3 4 4 -4 7 -15 12 -24 12 -15 0 -15 2 -2 10 8 5 10 10 4 10 -15 0
-11 40 5 49 10 6 9 10 -3 14 -9 4 -13 13 -10 22 3 8 11 12 17 8 6 -4 7 -1 2 7
-11 18 -12 160 -2 160 5 0 5 5 2 10 -4 6 -1 18 7 27 9 12 9 15 1 9 -7 -4 -13
-3 -13 1 0 5 6 15 13 22 6 8 7 11 1 8 -12 -7 -13 31 -1 51 5 7 3 12 -4 12 -10
0 -10 3 -1 12 15 15 16 31 0 22 -7 -5 -9 -2 -5 9 4 12 0 14 -19 11 -13 -2 -24
0 -24 6 0 6 -5 8 -11 5 -16 -10 -69 -12 -69 -3 0 4 5 8 12 8 6 0 8 3 5 6 -4 4
-13 1 -21 -5 -8 -7 -25 -11 -38 -10 -13 2 -29 -1 -37 -5 -9 -6 -12 -5 -8 1 5
7 -12 10 -49 9 -31 -1 -67 4 -81 11 -15 7 -28 11 -31 8 -3 -3 0 -5 6 -5 7 0
12 -5 12 -11 0 -5 -5 -7 -12 -3 -7 5 -25 7 -41 6 -16 -1 -26 2 -23 7 4 6 -5 6
-25 1 -24 -7 -30 -6 -26 4 7 18 -22 14 -34 -5 -7 -12 -9 -11 -9 3 0 9 -4 19
-9 22 -5 4 -7 -4 -5 -16 2 -13 2 -18 -1 -13 -3 6 -28 10 -56 9 -40 -2 -48 0
-39 11 8 10 8 15 -1 21 -7 4 -9 3 -6 -3z m407 -187 c0 -3 -4 -8 -10 -11 -5 -3
-10 -1 -10 4 0 6 5 11 10 11 6 0 10 -2 10 -4z"/>
<path d="M1955 2150 c3 -5 8 -10 11 -10 2 0 4 5 4 10 0 6 -5 10 -11 10 -5 0
-7 -4 -4 -10z"/>
<path d="M955 2099 c-4 -6 -5 -12 -2 -15 2 -3 7 2 10 11 7 17 1 20 -8 4z"/>
<path d="M970 2011 c0 -6 4 -13 10 -16 6 -3 7 1 4 9 -7 18 -14 21 -14 7z"/>
<path d="M1675 1973 c3 -3 0 -11 -5 -18 -7 -8 -5 -12 4 -12 14 0 16 22 3 32
-4 3 -5 2 -2 -2z"/>
<path d="M1175 1939 c-8 -25 9 -47 20 -28 6 8 4 10 -5 4 -10 -6 -11 -2 -6 19
8 31 0 35 -9 5z"/>
<path d="M1206 1928 c3 -5 10 -6 15 -3 13 9 11 12 -6 12 -8 0 -12 -4 -9 -9z"/>
<path d="M2076 1912 c-2 -4 -1 -14 4 -22 7 -11 9 -9 7 8 -1 24 -3 26 -11 14z"/>
<path d="M1210 1900 c-8 -5 -12 -12 -9 -15 4 -3 12 1 19 10 14 17 11 19 -10 5z"/>
<path d="M1295 1890 c3 -5 8 -10 11 -10 2 0 4 5 4 10 0 6 -5 10 -11 10 -5 0
-7 -4 -4 -10z"/>
<path d="M2076 1817 c3 -10 9 -15 12 -12 3 3 0 11 -7 18 -10 9 -11 8 -5 -6z"/>
<path d="M1410 1730 c0 -5 5 -10 11 -10 5 0 7 5 4 10 -3 6 -8 10 -11 10 -2 0
-4 -4 -4 -10z"/>
<path d="M1220 1716 c0 -2 7 -7 16 -10 8 -3 12 -2 9 4 -6 10 -25 14 -25 6z"/>
<path d="M1495 1711 c-3 -5 -2 -12 3 -15 5 -3 9 1 9 9 0 17 -3 19 -12 6z"/>
<path d="M2096 1692 c-3 -5 1 -9 9 -9 8 0 12 4 9 9 -3 4 -7 8 -9 8 -2 0 -6 -4
-9 -8z"/>
<path d="M995 1670 c3 -5 8 -10 11 -10 2 0 4 5 4 10 0 6 -5 10 -11 10 -5 0 -7
-4 -4 -10z"/>
<path d="M2046 1572 c-3 -5 1 -9 9 -9 8 0 12 4 9 9 -3 4 -7 8 -9 8 -2 0 -6 -4
-9 -8z"/>
<path d="M2075 1539 c-4 -6 -14 -8 -22 -5 -8 3 -11 2 -8 -3 3 -6 14 -9 25 -8
10 1 17 4 14 8 -2 4 2 10 8 12 9 4 10 6 1 6 -6 1 -15 -4 -18 -10z"/>
<path d="M1785 1530 c-3 -6 1 -7 9 -4 18 7 21 14 7 14 -6 0 -13 -4 -16 -10z"/>
<path d="M1960 1536 c0 -2 8 -10 18 -17 15 -13 16 -12 3 4 -13 16 -21 21 -21
13z"/>
<path d="M1210 1509 c0 -5 5 -7 10 -4 6 3 10 8 10 11 0 2 -4 4 -10 4 -5 0 -10
-5 -10 -11z"/>
<path d="M2276 1492 c-3 -5 1 -9 9 -9 8 0 12 4 9 9 -3 4 -7 8 -9 8 -2 0 -6 -4
-9 -8z"/>
<path d="M1219 1403 c-13 -16 -12 -17 4 -4 9 7 17 15 17 17 0 8 -8 3 -21 -13z"/>
<path d="M986 1392 c-3 -5 1 -9 9 -9 8 0 12 4 9 9 -3 4 -7 8 -9 8 -2 0 -6 -4
-9 -8z"/>
<path d="M1666 1353 c-6 -14 -5 -15 5 -6 7 7 10 15 7 18 -3 3 -9 -2 -12 -12z"/>
<path d="M1716 1361 c-3 -5 1 -11 9 -14 9 -4 12 -1 8 9 -6 16 -10 17 -17 5z"/>
<path d="M1016 1352 c-3 -5 1 -9 9 -9 8 0 12 4 9 9 -3 4 -7 8 -9 8 -2 0 -6 -4
-9 -8z"/>
<path d="M1211 1334 c0 -11 3 -14 6 -6 3 7 2 16 -1 19 -3 4 -6 -2 -5 -13z"/>
<path d="M2075 1339 c-4 -6 -5 -12 -2 -15 2 -3 7 2 10 11 7 17 1 20 -8 4z"/>
<path d="M1710 1320 c-9 -6 -10 -10 -3 -10 6 0 15 5 18 10 8 12 4 12 -15 0z"/>
<path d="M1290 1313 c0 -6 8 -17 18 -24 16 -13 16 -13 2 6 -8 11 -16 22 -17
24 -2 2 -3 0 -3 -6z"/>
<path d="M1495 1310 c-3 -5 -1 -10 4 -10 6 0 11 5 11 10 0 6 -2 10 -4 10 -3 0
-8 -4 -11 -10z"/>
<path d="M1415 1301 c-3 -5 -2 -12 3 -15 5 -3 9 1 9 9 0 17 -3 19 -12 6z"/>
<path d="M1348 1283 c6 -2 18 -2 25 0 6 3 1 5 -13 5 -14 0 -19 -2 -12 -5z"/>
<path d="M2075 1270 c3 -5 8 -10 11 -10 2 0 4 5 4 10 0 6 -5 10 -11 10 -5 0
-7 -4 -4 -10z"/>
<path d="M2270 1186 c0 -2 8 -10 18 -17 15 -13 16 -12 3 4 -13 16 -21 21 -21
13z"/>
<path d="M1635 1139 c-4 -6 -5 -12 -2 -15 2 -3 7 2 10 11 7 17 1 20 -8 4z"/>
<path d="M1776 1012 c-3 -5 1 -9 9 -9 8 0 12 4 9 9 -3 4 -7 8 -9 8 -2 0 -6 -4
-9 -8z"/>
<path d="M1670 990 c-13 -8 -12 -10 3 -10 9 0 17 5 17 10 0 12 -1 12 -20 0z"/>
<path d="M2016 968 c3 -5 10 -6 15 -3 13 9 11 12 -6 12 -8 0 -12 -4 -9 -9z"/>
<path d="M1770 809 c0 -5 5 -7 10 -4 6 3 10 8 10 11 0 2 -4 4 -10 4 -5 0 -10
-5 -10 -11z"/>
<path d="M2146 788 c3 -5 10 -6 15 -3 13 9 11 12 -6 12 -8 0 -12 -4 -9 -9z"/>
</g>
</svg>
